<svg width="24" height="24" viewBox="0 0 24 24" fill="none" xmlns="http://www.w3.org/2000/svg">
<path d="M12 2.24695C9.62543 2.2469 7.32833 3.09183 5.51977 4.63055C3.7112 6.16928 2.50921 8.30136 2.12888 10.6453C1.74855 12.9892 2.21471 15.392 3.44394 17.4236C4.67317 19.4552 6.58525 20.9832 8.838 21.7339C9.338 21.8219 9.525 21.5219 9.525 21.2589C9.525 21.0219 9.513 20.2339 9.513 19.3969C7 19.8589 6.35 18.7839 6.15 18.2219C5.928 17.6748 5.57622 17.1898 5.125 16.8089C4.775 16.6219 4.275 16.1589 5.112 16.1469C5.43191 16.1815 5.73876 16.2927 6.00651 16.4711C6.27426 16.6496 6.495 16.89 6.65 17.1719C6.78673 17.4176 6.9706 17.6339 7.19107 17.8084C7.41153 17.9829 7.66427 18.1122 7.93478 18.1888C8.2053 18.2654 8.48828 18.2879 8.76751 18.255C9.04674 18.2221 9.31673 18.1344 9.562 17.9969C9.60496 17.4882 9.83176 17.0126 10.2 16.6589C7.975 16.4089 5.65 15.5469 5.65 11.7219C5.63665 10.7281 6.00328 9.76659 6.675 9.03395C6.36992 8.17007 6.40568 7.22238 6.775 6.38395C6.775 6.38395 7.612 6.12195 9.525 7.40895C11.1613 6.95905 12.8887 6.95905 14.525 7.40895C16.437 6.10895 17.275 6.38395 17.275 6.38395C17.6443 7.22238 17.6801 8.17007 17.375 9.03395C18.0494 9.76495 18.4164 10.7275 18.4 11.7219C18.4 15.5589 16.062 16.4089 13.838 16.6589C14.0764 16.901 14.2599 17.1915 14.3762 17.5106C14.4925 17.8298 14.5388 18.1703 14.512 18.5089C14.512 19.8469 14.5 20.9219 14.5 21.2589C14.5 21.5219 14.687 21.8339 15.187 21.7339C17.4356 20.9769 19.342 19.4453 20.5658 17.4127C21.7897 15.3801 22.2513 12.9787 21.8684 10.6371C21.4854 8.29561 20.2828 6.16638 18.4752 4.62953C16.6676 3.09268 14.3726 2.24824 12 2.24695Z" fill="white"/>
</svg>
