<svg width="12" height="12" viewBox="0 0 12 12" fill="none" xmlns="http://www.w3.org/2000/svg">
<path d="M11.6787 1.81947C11.7787 1.72266 11.8584 1.60685 11.9133 1.47878C11.9683 1.35071 11.9972 1.21295 11.9985 1.07354C11.9997 0.934136 11.9733 0.79587 11.9208 0.666813C11.8682 0.537756 11.7905 0.420493 11.6923 0.321866C11.5941 0.223239 11.4773 0.145224 11.3487 0.0923716C11.2201 0.0395194 11.0823 0.0128894 10.9434 0.0140346C10.8044 0.0151799 10.6671 0.0440777 10.5394 0.0990422C10.4117 0.154007 10.2962 0.233937 10.1996 0.334169L6.00518 4.54089L1.81215 0.334169C1.71634 0.231015 1.60081 0.148277 1.47244 0.0908924C1.34407 0.0335075 1.20549 0.00265073 1.06497 0.000163397C0.924457 -0.00232394 0.784882 0.0236092 0.654573 0.0764151C0.524264 0.129221 0.405892 0.207818 0.306517 0.307518C0.207142 0.407217 0.1288 0.525976 0.0761663 0.656711C0.0235323 0.787445 -0.00231637 0.927478 0.000162865 1.06845C0.0026421 1.20943 0.0333984 1.34846 0.0905965 1.47725C0.147795 1.60604 0.230263 1.72195 0.333081 1.81807L4.52331 6.02619L0.330291 10.2329C0.145435 10.4319 0.0447978 10.6952 0.0495814 10.9672C0.0543649 11.2392 0.164196 11.4987 0.355935 11.6911C0.547674 11.8834 0.806351 11.9936 1.07747 11.9984C1.34859 12.0032 1.61098 11.9023 1.80936 11.7168L6.00518 7.51009L10.1982 11.7182C10.3966 11.9037 10.659 12.0046 10.9301 11.9998C11.2012 11.995 11.4599 11.8848 11.6516 11.6925C11.8434 11.5001 11.9532 11.2406 11.958 10.9686C11.9628 10.6966 11.8621 10.4333 11.6773 10.2343L7.48704 6.02619L11.6787 1.81947Z" fill="white"/>
</svg>
