<svg width="120" height="120" viewBox="0 0 120 120" fill="none" xmlns="http://www.w3.org/2000/svg">
<path d="M60.0002 0C43.705 0 41.6617 0.0691289 35.262 0.361007C28.8757 0.652349 24.5142 1.66678 20.6976 3.14974C16.7521 4.68308 13.406 6.7348 10.0705 10.0703C6.7348 13.4058 4.68308 16.7522 3.14992 20.6978C1.6666 24.5142 0.652527 28.8757 0.360828 35.262C0.0689503 41.6617 0 43.705 0 60.0002C0 76.295 0.0689503 78.3383 0.360828 84.738C0.652527 91.1243 1.6666 95.4858 3.14992 99.3022C4.68326 103.248 6.73498 106.594 10.0705 109.93C13.4062 113.265 16.7521 115.317 20.6976 116.85C24.5142 118.333 28.8757 119.347 35.262 119.639C41.6617 119.931 43.705 120 60.0002 120C76.295 120 78.3383 119.931 84.738 119.639C91.1243 119.348 95.4858 118.333 99.3022 116.85C103.248 115.317 106.594 113.265 109.93 109.93C113.265 106.594 115.317 103.248 116.85 99.3022C118.333 95.4858 119.348 91.1243 119.639 84.738C119.931 78.3383 120 76.295 120 60.0002C120 43.705 119.931 41.6617 119.639 35.262C119.348 28.8757 118.333 24.5142 116.85 20.6978C115.317 16.7522 113.265 13.4058 109.93 10.0703C106.594 6.7348 103.248 4.68308 99.3022 3.14974C95.4858 1.66678 91.1243 0.652349 84.738 0.361007C78.3383 0.0691289 76.295 0 60.0002 0ZM60.0002 10.8107C76.0206 10.8107 77.9183 10.872 84.2451 11.1607C90.0952 11.4274 93.2721 12.4048 95.3862 13.2265C98.187 14.3151 100.186 15.6151 102.285 17.7147C104.385 19.8143 105.685 21.8131 106.773 24.6137C107.595 26.7279 108.573 29.905 108.839 35.7549C109.128 42.0817 109.189 43.9794 109.189 60C109.189 76.0206 109.128 77.9183 108.839 84.2451C108.573 90.0952 107.595 93.2721 106.773 95.3862C105.685 98.187 104.385 100.186 102.285 102.285C100.186 104.385 98.1869 105.685 95.3863 106.773C93.2721 107.595 90.095 108.573 84.2451 108.839C77.9194 109.128 76.0218 109.189 60 109.189C43.9782 109.189 42.081 109.128 35.7549 108.839C29.9048 108.573 26.7279 107.595 24.6138 106.773C21.813 105.685 19.8143 104.385 17.7149 102.285C15.6153 100.186 14.3151 98.1869 13.2265 95.3863C12.4048 93.2721 11.4275 90.095 11.1607 84.2451C10.872 77.9183 10.8107 76.0206 10.8107 60C10.8107 43.9794 10.872 42.0817 11.1607 35.7549C11.4275 29.9048 12.4048 26.7279 13.2265 24.6138C14.3151 21.813 15.6153 19.8143 17.7147 17.7149C19.8143 15.6151 21.8131 14.3151 24.6137 13.2265C26.7279 12.4048 29.905 11.4274 35.7549 11.1607C42.0817 10.872 43.9794 10.8107 60 10.8107" fill="white"/>
<path d="M60.0002 80C48.9542 80 39.9999 71.0458 39.9999 60.0001C39.9999 48.9542 48.9542 39.9999 60.0002 39.9999C71.0458 39.9999 80.0001 48.9542 80.0001 60.0001C80.0001 71.0458 71.0458 80 60.0002 80ZM60.0002 29.1892C42.9836 29.1892 29.1892 42.9835 29.1892 60.0001C29.1892 77.0164 42.9836 90.8108 60.0002 90.8108C77.0164 90.8108 90.8108 77.0164 90.8108 60.0001C90.8108 42.9835 77.0164 29.1892 60.0002 29.1892V29.1892ZM99.2283 27.9718C99.2283 31.9484 96.0046 35.1718 92.0281 35.1718C88.0519 35.1718 84.8282 31.9484 84.8282 27.9718C84.8282 23.9954 88.0519 20.7717 92.0281 20.7717C96.0046 20.7717 99.2283 23.9954 99.2283 27.9718" fill="white"/>
</svg>
