<svg width="16" height="15" viewBox="0 0 16 15" fill="none" xmlns="http://www.w3.org/2000/svg">
<path d="M6.02667 1.98667H10.0267V3H6.02667V1.98667ZM6.02667 8.01333H10.0267V8.97333H6.02667V8.01333ZM6.02667 9.98667H10.0267V11H6.02667V9.98667ZM15.1467 15H0.853333L2.13333 9.98667H4V0.973333C4 0.866666 4.01778 0.759999 4.05333 0.653333C4.12444 0.511111 4.19556 0.404444 4.26667 0.333333C4.37333 0.226666 4.48 0.155555 4.58667 0.12C4.72889 0.0488888 4.87111 0.0133333 5.01333 0.0133333H10.9867C11.1289 0.0133333 11.2533 0.0488888 11.36 0.12C11.5022 0.155555 11.6089 0.226666 11.68 0.333333C11.7867 0.404444 11.8578 0.511111 11.8933 0.653333C11.9644 0.759999 12 0.884444 12 1.02667V9.98667H13.8667L15.1467 15ZM5.01333 12.0133H10.9867V0.973333H5.01333V12.0133ZM13.8667 13.9867L13.12 11H12V12.9733H4V11H2.88L2.13333 13.9867H13.8667Z" fill="#CCCCCC"/>
</svg>
