<svg width="16" height="17" viewBox="0 0 16 17" fill="none" xmlns="http://www.w3.org/2000/svg">
<path d="M10.18 2.88C10.5267 2.88 10.82 3.00667 11.06 3.26C11.3133 3.5 11.44 3.79333 11.44 4.14V12.86C11.44 13.2067 11.3133 13.5067 11.06 13.76C10.82 14 10.5267 14.12 10.18 14.12H4.26C3.91333 14.12 3.61333 14 3.36 13.76C3.12 13.5067 3 13.2067 3 12.86V4.14C3 3.79333 3.12 3.5 3.36 3.26C3.61333 3.00667 3.91333 2.88 4.26 2.88H10.18ZM12 10.18H12.42C12.5267 10.18 12.62 10.22 12.7 10.3C12.78 10.3667 12.8267 10.4533 12.84 10.56V11.46C12.84 11.5667 12.8067 11.66 12.74 11.74C12.6733 11.8067 12.5867 11.8533 12.48 11.88H12V10.18H12.42H12ZM12 7.94H12.42C12.5267 7.94 12.62 7.97333 12.7 8.04C12.78 8.10667 12.8267 8.19333 12.84 8.3V9.2C12.84 9.30667 12.8067 9.4 12.74 9.48C12.6733 9.56 12.5867 9.60667 12.48 9.62H12V7.94H12.42H12ZM12 5.68H12.42C12.5267 5.68 12.62 5.72 12.7 5.8C12.78 5.86667 12.8267 5.95333 12.84 6.06V6.96C12.84 7.06667 12.8067 7.16 12.74 7.24C12.6733 7.30667 12.5867 7.35333 12.48 7.38H12V5.68H12.42H12ZM9.04 4.84H5.4C5.29333 4.84 5.2 4.88 5.12 4.96C5.04 5.02667 4.99333 5.10667 4.98 5.2L4.96 6.12C4.96 6.21333 4.99333 6.3 5.06 6.38C5.14 6.46 5.23333 6.50667 5.34 6.52L9.04 6.54C9.14667 6.54 9.24 6.50667 9.32 6.44C9.4 6.36 9.44667 6.26667 9.46 6.16L9.48 5.26C9.48 5.14 9.43333 5.04 9.34 4.96C9.26 4.88 9.16 4.84 9.04 4.84Z" fill="#519ABA"/>
</svg>
