<svg width="13" height="3" viewBox="0 0 13 3" fill="none" xmlns="http://www.w3.org/2000/svg">
<path d="M2 1.5C2 1.78444 1.89333 2.03333 1.68 2.24667C1.50222 2.42444 1.27111 2.51333 0.986667 2.51333C0.702222 2.51333 0.471111 2.42444 0.293333 2.24667C0.115556 2.03333 0.0266666 1.78444 0.0266666 1.5C0.0266666 1.21556 0.115556 0.984444 0.293333 0.806666C0.471111 0.593333 0.702222 0.486667 0.986667 0.486667C1.27111 0.486667 1.50222 0.593333 1.68 0.806666C1.89333 0.984444 2 1.21556 2 1.5ZM7.01333 1.5C7.01333 1.78444 6.90667 2.03333 6.69333 2.24667C6.51556 2.42444 6.28444 2.51333 6 2.51333C5.71556 2.51333 5.46667 2.42444 5.25333 2.24667C5.07556 2.03333 4.98667 1.78444 4.98667 1.5C4.98667 1.21556 5.07556 0.984444 5.25333 0.806666C5.46667 0.593333 5.71556 0.486667 6 0.486667C6.28444 0.486667 6.51556 0.593333 6.69333 0.806666C6.90667 0.984444 7.01333 1.21556 7.01333 1.5ZM12.0267 1.5C12.0267 1.78444 11.92 2.03333 11.7067 2.24667C11.5289 2.42444 11.2978 2.51333 11.0133 2.51333C10.7289 2.51333 10.48 2.42444 10.2667 2.24667C10.0889 2.03333 10 1.78444 10 1.5C10 1.21556 10.0889 0.984444 10.2667 0.806666C10.48 0.593333 10.7289 0.486667 11.0133 0.486667C11.2978 0.486667 11.5289 0.593333 11.7067 0.806666C11.92 0.984444 12.0267 1.21556 12.0267 1.5Z" fill="#CCCCCC"/>
</svg>
