<svg width="122" height="111" viewBox="0 0 122 111" fill="none" xmlns="http://www.w3.org/2000/svg">
<path d="M23.2039 106.033C11.7212 99.8974 4.46488 88.1621 1.71134 73.6369C3.53589 76.5977 5.74258 79.1823 8.28501 81.3548C10.0385 82.8512 11.9462 84.157 13.976 85.2503C20.0774 88.5453 27.345 90.0333 35.1952 89.6589C55.9332 88.6692 80.9084 74.9204 101.921 46.9049L92.4482 38.2431L121.95 22.7382L120.931 64.2867L110.998 55.2045C110.112 57.1624 109.164 59.1137 108.127 61.0515C87.3727 99.8494 49.2684 119.959 23.2045 106.033L23.2039 106.033ZM16.2207 81.13C14.4671 80.1817 12.8361 79.0652 11.3399 77.7866C5.37358 72.6883 1.43471 64.9493 0.62376 54.4268C1.49149 40.4105 5.75288 25.1928 13.5907 10.5412C15.4853 6.99953 17.6097 3.74819 19.7697 0.528073C6.94718 32.1714 12.0541 64.3948 33.059 75.6177C40.7617 79.7333 49.622 80.4852 58.7016 78.3962C50.3545 82.4751 42.2722 84.6194 34.9677 84.9677C27.842 85.3078 21.4807 83.9758 16.2202 81.1304L16.2207 81.13Z" fill="#A8A8A8"/>
</svg>
