<svg width="133" height="127" viewBox="0 0 133 127" fill="none" xmlns="http://www.w3.org/2000/svg">
<path d="M66.5 0C54.6131 0 44.9817 9.49187 44.5051 21.2256C34.5683 25.4527 26.1002 32.5009 20.1568 41.4915C14.2135 50.482 11.0578 61.017 11.0833 71.7826C11.0833 72.7323 11.039 73.7704 11.0833 74.8913C4.522 78.729 0 85.7802 0 93.8696C0 106.017 9.975 115.957 22.1667 115.957C25.3476 115.957 28.4232 115.288 31.1719 114.057C40.7811 122.102 53.2942 127 66.5 127C79.7058 127 92.2133 122.102 101.828 114.057C104.577 115.288 107.647 115.957 110.833 115.957C123.025 115.957 133 106.017 133 93.8696C133 85.6974 128.434 78.5357 121.745 74.7147C121.828 73.8312 121.917 72.9256 121.917 71.7826C121.942 61.017 118.787 50.482 112.843 41.4915C106.9 32.5009 98.4317 25.4527 88.4949 21.2256C88.0183 9.49187 78.3869 0 66.5 0ZM66.5 11.0435C72.69 11.0435 77.5833 15.9192 77.5833 22.087C77.5833 28.2547 72.69 33.1304 66.5 33.1304C60.31 33.1304 55.4167 28.2547 55.4167 22.087C55.4167 15.9192 60.31 11.0435 66.5 11.0435ZM46.9324 32.269C50.6508 39.2982 58.0157 44.1739 66.5 44.1739C74.9843 44.1739 82.3492 39.2982 86.0676 32.269C93.505 35.871 99.7731 41.4884 104.153 48.4771C108.534 55.4658 110.849 63.543 110.833 71.7826C98.6417 71.7826 88.6667 81.7217 88.6667 93.8696C88.6667 98.8115 90.379 103.295 93.172 106.984C85.4826 112.758 76.1283 115.904 66.5 115.957C56.8717 115.904 47.5174 112.758 39.828 106.984C42.7319 103.223 44.3148 98.6148 44.3333 93.8696C44.3333 81.7217 34.3583 71.7826 22.1667 71.7826C22.1512 63.543 24.4663 55.4658 28.8466 48.4771C33.2269 41.4884 39.495 35.871 46.9324 32.269ZM22.1667 82.8261C28.3567 82.8261 33.25 87.7018 33.25 93.8696C33.25 100.037 28.3567 104.913 22.1667 104.913C15.9766 104.913 11.0833 100.037 11.0833 93.8696C11.0833 87.7018 15.9766 82.8261 22.1667 82.8261ZM110.833 82.8261C117.023 82.8261 121.917 87.7018 121.917 93.8696C121.917 100.037 117.023 104.913 110.833 104.913C104.643 104.913 99.75 100.037 99.75 93.8696C99.75 87.7018 104.643 82.8261 110.833 82.8261Z" fill="#A8A8A8"/>
</svg>
