<svg width="117" height="127" viewBox="0 0 117 127" fill="none" xmlns="http://www.w3.org/2000/svg">
<path d="M58.5 0V10.5833C26.3516 10.5833 0 36.8035 0 68.7917C0 100.78 26.3516 127 58.5 127C90.6484 127 117 100.78 117 68.7917C117 53.1971 111.097 39.1054 100.546 28.6068L93.0682 36.0521C101.668 44.5982 106.364 55.8059 106.364 68.7917C106.364 95.0119 84.8516 116.417 58.5 116.417C32.1484 116.417 10.6364 95.0119 10.6364 68.7917C10.6364 42.5715 32.1484 21.1667 58.5 21.1667V31.75L85.0909 15.875L58.5 0ZM69.6363 34.7292L56.3408 61.1875C54.6636 61.6384 53.1833 62.6287 52.1309 64.0042C51.0785 65.3797 50.5131 67.063 50.5227 68.7917C50.5227 70.8968 51.3632 72.9158 52.8592 74.4043C54.3552 75.8929 56.3843 76.7292 58.5 76.7292H58.835L75.949 93.763L83.5965 86.1536L66.4773 69.125V68.7917C66.4773 67.7492 66.1795 66.7279 65.8125 65.8125L79.2728 39.3541L69.6363 34.7239V34.7292Z" fill="#A8A8A8"/>
</svg>
